Coordinates
version=1
nRows=10
nColumns=40
inDegrees=yes

Units are S.I. units (second, meters, Newtons, ...)
If the header above contains a line with 'inDegrees', this indicates whether rotational values are in degrees (yes) or radians (no).

endheader
time	pelvis_tilt	pelvis_list	pelvis_rotation	pelvis_tx	pelvis_ty	pelvis_tz	hip_flexion_r	hip_adduction_r	hip_rotation_r	knee_angle_r	knee_angle_r_beta	ankle_angle_r	subtalar_angle_r	mtp_angle_r	hip_flexion_l	hip_adduction_l	hip_rotation_l	knee_angle_l	knee_angle_l_beta	ankle_angle_l	subtalar_angle_l	mtp_angle_l	lumbar_extension	lumbar_bending	lumbar_rotation	arm_flex_r	arm_add_r	arm_rot_r	elbow_flex_r	pro_sup_r	wrist_flex_r	wrist_dev_r	arm_flex_l	arm_add_l	arm_rot_l	elbow_flex_l	pro_sup_l	wrist_flex_l	wrist_dev_l
      8.93999999999999950262	     -4.08391188243696134919	     -2.48105971187183671489	   -179.02509919057027332201	      0.21071697362434008149	      0.84984058387322758410	     -0.90158562895489968714	     12.42426314645209295406	    -34.93129885375203969033	    -31.79396885588576537884	     16.50556794561023110646	      0.28807650556253489027	    -16.33806331167011904881	      0.00000000000000000000	      0.00000000000000000000	     12.39960893399828734118	    -30.34484552319790395813	    -32.86875044379519295035	     20.67674951671197547398	      0.36087735767677026066	    -11.71458311006910868457	      0.00000000000000000000	      0.00000000000000000000	    -32.81799617012088532420	     -0.84649722132780069739	     -3.39803254156822198695	     24.47871380485194947596	     -2.61413562777704022722	     47.63147304469303122687	      4.13413524261450682218	     15.44027246588193413857	      0.00000000000000000000	      0.00000000000000000000	     30.82121134851181309955	     -6.31822779329092831802	     80.69800380635658143547	      8.24842151725184180577	     80.29226452731697349918	      0.00000000000000000000	      0.00000000000000000000
      8.94500000000000028422	     -4.49053747023488547541	     -2.53832755136902976645	   -179.14514173140753428015	      0.20887968432657558204	      0.85085179036516200846	     -0.90141161148638437872	     11.69081099615947039183	    -34.88980962219945070046	    -32.14164585307486277088	     16.13637887794059011526	      0.28163294076933148569	    -16.42859432957975585055	      0.00000000000000000000	      0.00000000000000000000	     11.55999546253822529707	    -30.15216536187026008520	    -32.97996244842831004007	     20.30717786814599179479	      0.35442711558727046928	    -11.67906188004920053913	      0.00000000000000000000	      0.00000000000000000000	    -32.63077453017852036510	     -0.90199743473617688405	     -3.36428858639169137135	     24.15441640721945404380	     -2.81420370711382750173	     47.90756533372379522007	      4.18881963427528702937	     15.44273425154806211879	      0.00000000000000000000	      0.00000000000000000000	     30.45052016682444673279	     -6.23392789275603309562	     80.81341868734429567667	      8.19681000522564850996	     80.38766417256775298483	      0.00000000000000000000	      0.00000000000000000000
      8.94999999999999928946	     -4.64923264175682593446	     -2.53436118793175513275	   -179.22250852935508191877	      0.20711564032945647962	      0.85119340217081762567	     -0.90121258083859412391	     11.27421410666102374876	    -34.82495731821307316523	    -32.37268820914255940124	     15.89262772343739982261	      0.27737868056771342040	    -16.35464547045269512182	      0.00000000000000000000	      0.00000000000000000000	     11.18157502317105489453	    -30.10844519250681017297	    -32.92162162112845180673	     20.24584894073720064966	      0.35335672387727046218	    -11.44122352556113320077	      0.00000000000000000000	      0.00000000000000000000	    -32.14210383346348720579	     -0.89511955824096700596	     -3.36111779336026694764	     23.81649063169063040846	     -2.83379776356999890652	     47.95899083877704782708	      4.08340586965633800531	     15.41643972140302665252	      0.00000000000000000000	      0.00000000000000000000	     30.01059260977576670371	     -6.21873412210128861943	     80.90927140181864274382	      8.16288092452232483254	     80.47051669544428875724	      0.00000000000000000000	      0.00000000000000000000
      8.95500000000000007105	     -4.81623806203673598958	     -2.53994528574984057556	   -179.28372907577536921053	      0.20539402271240092546	      0.85159089463472315007	     -0.90098886515422504928	     10.83821798404145830830	    -34.76805353554196642563	    -32.64088403978256991422	     15.63713465177275452334	      0.27291948525113152169	    -16.32007040886039561656	      0.00000000000000000000	      0.00000000000000000000	     10.80205749319718222523	    -30.05401920147048855370	    -32.86714461768688977372	     20.18844670497452042923	      0.35235486586520564645	    -11.27111992416517338711	      0.00000000000000000000	      0.00000000000000000000	    -31.68292904546469301863	     -0.89370276807822324194	     -3.38677924250368311831	     23.50175839932933286036	     -2.89054275022474893575	     47.98257843783536458204	      3.98601712676236985544	     15.38978476305581821748	      0.00000000000000000000	      0.00000000000000000000	     29.56562951912198400350	     -6.16554956879642990231	     80.99671469349726748987	      8.16394564773552389170	     80.54852144348878084656	      0.00000000000000000000	      0.00000000000000000000
      8.96000000000000085265	     -5.23172855541834369575	     -2.51733963073341726613	   -179.35315940270479018182	      0.20372973557315812720	      0.85261410231811296523	     -0.90079108202674929018	      9.97378234851817069284	    -34.57530573981468791089	    -32.91792873897411908501	     15.05616347679758604272	      0.26277962538863475217	    -16.53260976502194523619	      0.00000000000000000000	      0.00000000000000000000	     10.05691904189102992007	    -29.98108556900872656570	    -32.93610431584935582805	     19.93265067474030871608	      0.34789038292408769326	    -11.23916557319716247321	      0.00000000000000000000	      0.00000000000000000000	    -31.52917365928425752486	     -0.84835024179761708840	     -3.30627913251742144851	     23.04422762859850593031	     -3.06793328700461076508	     48.10515933141453359667	      4.20098858195310942421	     15.42941567897562116229	      0.00000000000000000000	      0.00000000000000000000	     29.25329970606813745349	     -6.14210951239099589571	     81.00143825408849806990	      8.29112380191817699426	     80.58198522836707411443	      0.00000000000000000000	      0.00000000000000000000
      8.96499999999999985789	     -5.36117069321425088191	     -2.53980632467890066195	   -179.37061532683367204299	      0.20193592898306561567	      0.85284693736260552832	     -0.90044848075992833802	      9.57448748336140376125	    -34.57073491250212526893	    -33.22409596080645144411	     14.87253766124818987748	      0.25957475031563798096	    -16.44061247801296232751	      0.00000000000000000000	      0.00000000000000000000	      9.75442214369895310710	    -29.92604795928566474572	    -32.94487159086312288991	     19.92552199770766208076	      0.34776596403855675188	    -11.02977322059908615870	      0.00000000000000000000	      0.00000000000000000000	    -31.02158913779059190574	     -0.80522947501419717131	     -3.42643796935235434020	     22.73679546910868864984	     -3.16615739609565638446	     48.10285332183927664573	      4.11683044705218215142	     15.41367240016601414254	      0.00000000000000000000	      0.00000000000000000000	     28.72886593719576353578	     -6.14452187336808197671	     81.07454332426496534936	      8.28629097855519169968	     80.64044474175697985174	      0.00000000000000000000	      0.00000000000000000000
      8.97000000000000063949	     -5.48564446416304374310	     -2.55903584147974250129	   -179.36665064665814384171	      0.20042968993905288522	      0.85307110410393294231	     -0.90018298198458257531	      9.21710208872076108833	    -34.58067071726942032228	    -33.51748082814714990718	     14.73115478822695756378	      0.25710715367548842014	    -16.41469882252868472960	      0.00000000000000000000	      0.00000000000000000000	      9.52381906228437280504	    -29.89140418912926833173	    -32.80415970817801252224	     19.95830222982777968355	      0.34833808701862079005	    -10.94338916283807705554	      0.00000000000000000000	      0.00000000000000000000	    -30.52461001063915091436	     -0.80988467255084539698	     -3.49487044691066151003	     22.53756112105279996172	     -3.20887969455730104329	     48.09472057489643503914	      4.06369544170685159656	     15.40291338463321402230	      0.00000000000000000000	      0.00000000000000000000	     28.41279379830999118894	     -6.15101890623993874385	     81.11801149220711693033	      8.28345871328002836265	     80.67947638052564229838	      0.00000000000000000000	      0.00000000000000000000
      8.97499999999999964473	     -5.98264972216784585157	     -2.60226578492924165431	   -179.44232860846909716201	      0.19877089141228795888	      0.85435797202289442964	     -0.89997445616037685667	      8.16756560289455535440	    -34.38901624412272894915	    -33.79439603233753786071	     13.94145108634586804897	      0.24332422396247568863	    -16.71345535547763105910	      0.00000000000000000000	      0.00000000000000000000	      8.60049855052151457357	    -29.73213074653152787619	    -33.19603883161165924776	     19.59042721508332007829	      0.34191745677550727800	    -10.92152979881427299347	      0.00000000000000000000	      0.00000000000000000000	    -30.47629945785896410371	     -0.82123254003687995439	     -3.58783978583264628881	     21.97254699224340157571	     -3.44494500143156301419	     48.21397026941546215539	      4.52162893394425413618	     15.53599602055109762944	      0.00000000000000000000	      0.00000000000000000000	     28.02094784936802085440	     -6.28619587241744071093	     81.00274395829649165535	      8.55199099056136979868	     80.66317245587919160243	      0.00000000000000000000	      0.00000000000000000000
      8.98000000000000042633	     -6.05819448351569889155	     -2.62769423064147700231	   -179.39673676825958636982	      0.19746212668115128985	      0.85452774972322786962	     -0.89960919131617622657	      7.86757386035285044557	    -34.41176654181663252530	    -34.09233128893247055657	     13.83002177530503118419	      0.24137941560158421295	    -16.67297452925997447437	      0.00000000000000000000	      0.00000000000000000000	      8.45794581362351216569	    -29.68430183305932246185	    -33.09297250520457112088	     19.62087195017292629018	      0.34244881764271833946	    -10.85707617326674245817	      0.00000000000000000000	      0.00000000000000000000	    -29.97574367280307683359	     -0.78279034617438203458	     -3.70392388463187538505	     21.81032648093620096574	     -3.49628774625608906845	     48.20284453619820652648	      4.43827261917020177151	     15.52204760948359130168	      0.00000000000000000000	      0.00000000000000000000	     27.74015114701207096459	     -6.26631712948050445533	     81.05342859108735353857	      8.54805569477742110962	     80.70337342355307441721	      0.00000000000000000000	      0.00000000000000000000
      8.98499999999999943157	     -6.14668517119207624688	     -2.66038866042132626788	   -179.44859360766000122567	      0.19592340955655890289	      0.85485651413576113633	     -0.89936274674418892339	      7.42009486345537006002	    -34.29644311564933190084	    -34.21341223092228744918	     13.33487741169468421276	      0.23273751618389165730	    -16.66645378248318110082	      0.00000000000000000000	      0.00000000000000000000	      8.13335837166566300027	    -29.63100025152677474694	    -33.43187652392758479891	     19.54471064383499978589	      0.34111955208450150945	    -10.61246367085051822698	      0.00000000000000000000	      0.00000000000000000000	    -29.45383093266703511404	     -0.78991443411387651796	     -3.91676998148914501385	     21.30608336840244376731	     -3.47440122950710739147	     48.18898250413687378568	      4.41947205543506260739	     15.53418847137608693743	      0.00000000000000000000	      0.00000000000000000000	     27.16795044478561038659	     -6.35056053973279954761	     81.10497484368954701495	      8.56267023440343244545	     80.75277326323134730046	      0.00000000000000000000	      0.00000000000000000000
